<?xml version="1.0" standalone="no"?>
<!DOCTYPE svg PUBLIC "-//W3C//DTD SVG 20010904//EN"
 "http://www.w3.org/TR/2001/REC-SVG-20010904/DTD/svg10.dtd">
<svg version="1.0" xmlns="http://www.w3.org/2000/svg"
 width="200.000000pt" height="200.000000pt" viewBox="0 0 200.000000 200.000000"
 preserveAspectRatio="xMidYMid meet">

<g transform="translate(0.000000,200.000000) scale(0.100000,-0.100000)"
fill="#000000" stroke="none">
<path d="M940 1866 c0 -58 -8 -69 -55 -80 -16 -4 -37 -9 -46 -12 -12 -3 -22
10 -38 55 l-22 60 -57 -25 c-31 -14 -61 -29 -65 -33 -4 -4 1 -29 13 -55 11
-26 20 -51 20 -56 0 -4 -17 -19 -38 -33 l-39 -25 -41 41 -42 41 -45 -44 c-25
-24 -45 -48 -45 -52 0 -4 16 -26 36 -48 39 -43 39 -50 -1 -104 -14 -19 -16
-19 -70 2 -52 20 -56 20 -62 4 -3 -9 -14 -38 -24 -63 l-17 -46 53 -26 53 -26
-9 -38 c-5 -21 -9 -41 -9 -45 0 -5 -27 -8 -60 -8 l-61 0 3 -72 3 -72 56 3 c32
1 59 -1 62 -6 3 -4 8 -26 11 -49 l7 -41 -50 -21 c-28 -11 -51 -27 -51 -35 0
-12 36 -105 45 -115 1 -1 25 6 54 17 l51 21 27 -41 26 -40 -36 -37 c-21 -21
-37 -42 -37 -47 0 -5 19 -29 42 -52 l42 -43 42 41 42 41 36 -27 c20 -15 36
-30 36 -34 0 -3 -9 -30 -20 -59 l-20 -53 42 -18 c85 -36 83 -37 107 19 21 49
23 51 54 45 69 -14 67 -12 67 -76 l0 -59 64 0 63 0 7 59 c6 56 8 59 38 65 67
13 74 10 98 -48 l22 -55 56 25 c31 14 58 26 60 28 3 4 -13 71 -24 101 -5 13
48 55 68 55 5 0 26 -17 49 -37 l40 -36 47 46 46 46 -25 28 c-54 60 -54 60 -25
103 l26 39 55 -26 c31 -14 58 -23 60 -22 13 14 54 124 48 129 -5 4 -30 15 -56
24 -46 17 -48 19 -42 50 14 68 11 66 81 66 l65 0 -3 73 -3 72 -62 3 c-41 2
-63 7 -63 15 0 7 -3 29 -6 49 -6 37 -6 37 50 62 31 14 56 27 56 30 0 21 -46
116 -56 116 -7 0 -33 -9 -59 -20 -26 -11 -48 -20 -49 -20 -1 0 -12 20 -26 45
l-24 45 44 45 44 45 -49 50 -49 49 -43 -39 c-23 -22 -45 -40 -47 -40 -15 0
-76 44 -76 55 0 7 9 32 20 56 11 24 20 49 20 55 0 13 -121 57 -130 47 -4 -5
-15 -29 -25 -55 -10 -27 -19 -48 -21 -48 -2 0 -26 5 -54 11 l-50 11 0 64 0 64
-65 0 -65 0 0 -54z m120 -21 c0 -62 1 -65 28 -71 15 -3 42 -10 60 -14 32 -9
34 -8 53 36 10 25 19 50 19 55 0 12 9 11 63 -7 26 -9 47 -20 47 -24 0 -5 -9
-29 -20 -55 -11 -26 -20 -52 -20 -58 0 -7 23 -25 51 -41 l51 -28 42 41 42 41
39 -40 39 -40 -44 -45 -44 -44 19 -34 c39 -73 39 -73 93 -54 26 9 52 17 58 17
9 0 44 -72 44 -91 0 -4 -21 -14 -47 -24 -27 -10 -51 -21 -56 -24 -4 -4 -2 -32
4 -63 12 -61 21 -68 92 -68 l37 0 0 -55 0 -55 -60 0 -59 0 -10 -37 c-25 -96
-27 -88 26 -108 26 -10 51 -20 55 -24 6 -5 -24 -87 -36 -99 -2 -2 -27 7 -55
19 -48 20 -53 21 -70 5 -10 -9 -26 -32 -37 -51 l-18 -35 39 -40 39 -40 -37
-37 -37 -37 -27 25 c-59 53 -58 53 -108 23 -28 -16 -44 -32 -41 -40 13 -35 27
-97 22 -102 -3 -3 -24 -13 -46 -23 l-41 -18 -24 55 -25 56 -37 -6 c-100 -17
-93 -12 -93 -71 0 -30 -3 -56 -8 -58 -4 -3 -28 -3 -55 0 l-47 6 0 57 0 58 -46
7 c-26 3 -52 9 -59 11 -8 3 -20 -12 -30 -41 -10 -25 -21 -48 -26 -50 -4 -3
-28 4 -53 15 l-46 19 21 56 c12 31 19 57 17 59 -1 1 -22 17 -46 35 l-43 34
-43 -42 -42 -41 -32 33 c-18 18 -32 37 -32 42 0 5 16 26 37 47 l36 37 -29 42
c-15 23 -33 43 -39 45 -6 3 -31 -2 -55 -11 -49 -17 -51 -16 -73 42 l-16 42 53
24 54 25 -12 54 -11 53 -58 3 -57 3 0 59 0 60 54 0 c59 0 60 1 71 71 l7 44
-51 22 c-47 20 -50 23 -42 45 5 13 14 35 20 50 l10 28 53 -21 53 -21 22 28
c49 62 49 69 9 114 -20 22 -36 44 -36 48 0 4 16 23 35 42 l35 34 38 -37 c21
-20 41 -37 46 -37 4 0 27 14 51 30 l44 31 -19 50 c-11 27 -20 53 -20 57 0 5
23 18 50 29 l51 22 10 -27 c33 -92 30 -90 114 -69 l50 13 3 62 3 62 54 0 55 0
0 -65z"/>
<path d="M885 1726 c-367 -84 -552 -476 -383 -810 42 -83 162 -201 249 -244
219 -110 501 -55 662 129 84 95 147 255 147 374 0 124 -66 287 -155 383 -129
139 -343 209 -520 168z m250 -21 c144 -38 284 -153 348 -286 45 -93 56 -143
57 -244 0 -150 -53 -279 -159 -384 -169 -169 -416 -209 -631 -103 -77 37 -198
160 -238 240 -156 315 8 680 348 777 63 18 204 18 275 0z"/>
<path d="M910 1665 c0 -5 5 -17 10 -25 5 -8 10 -10 10 -5 0 6 -5 17 -10 25 -5
8 -10 11 -10 5z"/>
<path d="M991 1654 c0 -11 3 -14 6 -6 3 7 2 16 -1 19 -3 4 -6 -2 -5 -13z"/>
<path d="M1106 1647 c3 -10 9 -15 12 -12 3 3 0 11 -7 18 -10 9 -11 8 -5 -6z"/>
<path d="M1135 1639 c-4 -6 -5 -12 -2 -15 2 -3 7 2 10 11 7 17 1 20 -8 4z"/>
<path d="M1207 1609 c4 -13 8 -18 11 -10 2 7 -1 18 -6 23 -8 8 -9 4 -5 -13z"/>
<path d="M760 1615 c0 -5 5 -17 10 -25 5 -8 10 -10 10 -5 0 6 -5 17 -10 25 -5
8 -10 11 -10 5z"/>
<path d="M891 1594 c-124 -33 -227 -121 -284 -241 -30 -64 -32 -75 -32 -178 0
-103 2 -114 32 -178 44 -93 119 -169 212 -215 72 -36 79 -37 180 -37 98 0 111
2 174 32 75 36 164 114 201 177 77 131 75 322 -5 448 -104 162 -298 241 -478
192z m282 -36 c208 -97 303 -356 205 -564 -54 -115 -184 -212 -315 -235 -219
-38 -436 124 -476 354 -20 120 21 253 109 347 93 99 175 132 319 127 83 -2
110 -7 158 -29z"/>
<path d="M980 1466 c0 -89 -10 -112 -36 -80 -13 18 -14 17 -12 -11 4 -36 35
-47 55 -19 16 21 18 180 3 189 -6 4 -10 -25 -10 -79z"/>
<path d="M1062 1508 c-21 -21 -14 -65 13 -86 28 -22 34 -62 10 -62 -9 0 -19
10 -24 22 -4 12 -10 17 -13 12 -8 -14 9 -54 27 -60 45 -18 63 81 18 101 -24
10 -37 31 -27 46 9 15 34 10 34 -6 0 -8 5 -15 10 -15 15 0 12 27 -6 44 -19 19
-26 20 -42 4z"/>
<path d="M858 1494 c-30 -16 -37 -34 -13 -34 12 0 15 -13 15 -60 0 -33 4 -60
10 -60 6 0 10 30 10 70 0 40 4 70 10 70 6 0 10 7 10 15 0 18 -7 18 -42 -1z"/>
<path d="M1182 1448 c-20 -20 -14 -36 18 -53 17 -9 30 -20 30 -25 0 -19 -22
-21 -41 -4 -20 18 -23 16 -13 -10 8 -20 48 -21 64 -1 16 20 6 43 -25 55 -27
10 -32 24 -13 36 6 4 18 -2 25 -12 14 -19 15 -19 11 1 -4 23 -38 31 -56 13z"/>
<path d="M730 1390 c0 -49 0 -50 32 -50 17 0 28 3 24 8 -4 4 -13 7 -19 7 -7 0
-13 19 -15 43 -4 59 -22 53 -22 -8z"/>
<path d="M902 1360 c0 -14 2 -19 5 -12 2 6 2 18 0 25 -3 6 -5 1 -5 -13z"/>
<path d="M1010 1360 c0 -11 5 -20 10 -20 6 0 10 9 10 20 0 11 -4 20 -10 20 -5
0 -10 -9 -10 -20z"/>
<path d="M800 1355 c0 -8 5 -15 10 -15 6 0 10 7 10 15 0 8 -4 15 -10 15 -5 0
-10 -7 -10 -15z"/>
<path d="M1130 1355 c0 -8 5 -15 10 -15 6 0 10 7 10 15 0 8 -4 15 -10 15 -5 0
-10 -7 -10 -15z"/>
<path d="M1250 1350 c0 -5 5 -10 10 -10 6 0 10 5 10 10 0 6 -4 10 -10 10 -5 0
-10 -4 -10 -10z"/>
<path d="M834 1265 c-3 -8 4 -30 16 -50 18 -29 20 -38 9 -51 -18 -21 4 -42 25
-24 9 7 14 16 11 20 -3 4 7 11 21 14 22 6 25 11 19 29 -4 12 -7 32 -7 45 0 12
-4 22 -9 22 -5 0 -9 -5 -9 -12 0 -6 -7 -4 -18 5 -23 21 -51 22 -58 2z m51 -35
c-9 -14 -25 5 -25 30 0 12 3 12 16 -2 9 -9 13 -21 9 -28z m34 -29 c-3 -6 -10
-7 -18 -2 -7 5 -10 14 -6 21 9 14 29 -2 24 -19z"/>
<path d="M1053 1256 c-21 -19 -25 -27 -17 -36 8 -8 14 -9 18 -1 11 17 24 13
36 -9 9 -17 7 -22 -17 -32 -22 -9 -24 -12 -10 -15 9 -3 17 -12 18 -21 0 -14 2
-14 6 -2 14 38 25 41 53 15 34 -33 53 -15 21 19 -27 29 -27 34 7 48 21 9 23
12 10 15 -10 3 -18 12 -18 21 -1 11 -6 8 -16 -10 -17 -32 -26 -34 -44 -13 -10
12 -10 18 0 30 21 26 -15 18 -47 -9z"/>
<path d="M1090 1070 c-7 -13 -13 -35 -15 -49 -1 -14 -5 -39 -9 -56 l-6 -30 12
31 c7 17 19 29 26 27 6 -3 12 0 12 7 0 6 -4 8 -10 5 -5 -3 -10 -1 -10 4 0 6 7
11 15 11 15 0 19 11 15 40 -3 28 -18 32 -30 10z m30 -24 c0 -3 -4 -8 -10 -11
-5 -3 -10 -1 -10 4 0 6 5 11 10 11 6 0 10 -2 10 -4z"/>
<path d="M1224 1005 c0 -49 1 -71 3 -48 2 23 2 64 0 90 -2 26 -3 8 -3 -42z"/>
<path d="M885 1049 c-4 -6 -5 -12 -2 -15 2 -3 7 2 10 11 7 17 1 20 -8 4z"/>
<path d="M1140 1010 c6 -11 13 -20 16 -20 2 0 0 9 -6 20 -6 11 -13 20 -16 20
-2 0 0 -9 6 -20z"/>
<path d="M818 1012 c-33 -4 -35 -18 -11 -70 16 -36 17 -36 20 -11 4 24 8 27
70 32 36 4 68 9 71 12 3 3 -2 13 -11 22 -16 16 -17 16 -17 -1 0 -12 -5 -16
-16 -12 -9 3 -21 3 -27 -1 -26 -16 -46 -12 -49 10 -2 18 -8 21 -30 19z"/>
<path d="M1135 958 c5 -26 3 -27 -42 -31 l-48 -3 53 -2 c55 -2 60 3 41 43 -8
17 -8 16 -4 -7z"/>
<path d="M950 949 c0 -5 -4 -8 -9 -5 -5 3 -14 -1 -21 -9 -11 -13 -8 -13 19 -4
17 6 28 15 25 20 -7 12 -14 11 -14 -2z"/>
<path d="M1095 950 c4 -6 11 -8 16 -5 14 9 11 15 -7 15 -8 0 -12 -5 -9 -10z"/>
<path d="M1236 1593 c-6 -14 -5 -15 5 -6 7 7 10 15 7 18 -3 3 -9 -2 -12 -12z"/>
<path d="M746 1587 c3 -10 9 -15 12 -12 3 3 0 11 -7 18 -10 9 -11 8 -5 -6z"/>
<path d="M1297 1554 c-4 -4 -7 -11 -7 -15 0 -9 27 -5 37 6 4 4 3 5 -4 2 -6 -4
-13 -2 -15 4 -2 5 -7 7 -11 3z"/>
<path d="M645 1510 c3 -5 12 -7 20 -3 21 7 19 13 -6 13 -11 0 -18 -4 -14 -10z"/>
<path d="M1352 1500 c0 -14 2 -19 5 -12 2 6 2 18 0 25 -3 6 -5 1 -5 -13z"/>
<path d="M590 1456 c0 -2 8 -10 18 -17 15 -13 16 -12 3 4 -13 16 -21 21 -21
13z"/>
<path d="M1421 1404 c0 -11 3 -14 6 -6 3 7 2 16 -1 19 -3 4 -6 -2 -5 -13z"/>
<path d="M1445 1340 c-3 -5 -1 -10 4 -10 6 0 11 5 11 10 0 6 -2 10 -4 10 -3 0
-8 -4 -11 -10z"/>
<path d="M1458 1303 c7 -3 16 -2 19 1 4 3 -2 6 -13 5 -11 0 -14 -3 -6 -6z"/>
<path d="M520 1280 c-8 -5 -10 -10 -5 -10 6 0 17 5 25 10 8 5 11 10 5 10 -5 0
-17 -5 -25 -10z"/>
<path d="M1470 1240 c-9 -6 -10 -10 -3 -10 6 0 15 5 18 10 8 12 4 12 -15 0z"/>
<path d="M1478 1213 c7 -3 16 -2 19 1 4 3 -2 6 -13 5 -11 0 -14 -3 -6 -6z"/>
<path d="M521 1147 c-8 -10 -7 -14 2 -14 8 0 14 6 14 14 0 7 -1 13 -2 13 -2 0
-8 -6 -14 -13z"/>
<path d="M1478 1143 c7 -3 16 -2 19 1 4 3 -2 6 -13 5 -11 0 -14 -3 -6 -6z"/>
<path d="M1146 703 c-6 -14 -5 -15 5 -6 7 7 10 15 7 18 -3 3 -9 -2 -12 -12z"/>
<path d="M127 1253 c-3 -15 -1 -38 4 -51 12 -31 6 -37 -20 -21 -11 7 -24 10
-28 6 -11 -12 19 -61 45 -72 12 -5 22 -16 22 -23 0 -9 -6 -9 -24 3 -17 11 -26
13 -31 5 -9 -15 20 -57 44 -65 10 -3 22 -12 25 -20 6 -17 -9 -21 -19 -5 -10
16 -25 11 -25 -8 0 -20 39 -62 58 -62 7 0 12 -7 12 -15 0 -13 -4 -14 -21 -5
-11 7 -23 9 -26 6 -13 -12 19 -58 47 -69 38 -14 50 -40 15 -31 -18 4 -25 2
-25 -8 0 -19 27 -43 65 -59 29 -12 29 -13 7 -17 -45 -7 -18 -42 53 -68 19 -7
19 -8 -2 -11 -13 -3 -23 -11 -23 -18 0 -15 49 -45 73 -45 8 0 20 -7 27 -15 11
-13 8 -15 -14 -15 -15 0 -26 -6 -26 -14 0 -16 54 -41 73 -33 7 3 24 -4 38 -14
24 -18 24 -19 2 -19 -33 0 -37 -17 -8 -36 16 -11 36 -14 54 -11 19 4 33 1 41
-8 10 -12 9 -15 -4 -15 -9 0 -16 -4 -16 -9 0 -19 31 -33 62 -28 18 2 42 0 53
-6 19 -10 19 -11 -3 -16 -32 -8 -31 -24 1 -35 18 -7 34 -6 50 3 20 11 29 11
48 0 20 -11 21 -14 7 -17 -10 -2 -18 -10 -18 -18 0 -19 49 -30 71 -16 14 9 25
9 44 0 23 -10 23 -12 7 -24 -15 -12 -15 -15 -2 -24 20 -13 63 -13 77 1 7 7 20
6 44 -4 l34 -14 -155 -50 c-86 -28 -173 -54 -193 -58 -32 -6 -63 -25 -41 -25
14 0 213 60 308 93 l99 35 116 -39 c150 -51 261 -82 268 -75 3 2 -21 12 -53
21 -161 45 -305 98 -295 108 7 7 18 7 36 -1 32 -15 55 -15 75 -2 13 9 13 12
-3 24 -18 14 -18 15 3 26 16 9 29 9 49 0 19 -8 35 -8 54 -1 33 13 34 19 5 30
-22 8 -22 9 10 25 17 9 32 12 32 7 0 -16 36 -22 64 -11 31 11 26 30 -7 30 -22
0 -22 1 3 20 14 10 27 15 28 10 8 -22 92 -3 92 20 0 6 -9 10 -20 10 -11 0 -20
5 -20 10 0 12 2 12 57 14 61 3 105 46 46 46 -26 0 -26 1 -10 17 9 10 33 18 52
19 55 1 92 44 38 44 -25 0 -26 1 -8 20 10 11 21 17 26 14 5 -2 22 2 39 11 31
16 41 45 15 45 -8 0 -15 5 -15 10 0 6 9 10 20 10 25 0 74 46 65 60 -4 6 -16 8
-27 4 -14 -4 -18 -2 -14 5 4 6 13 11 20 11 7 0 25 9 40 21 31 25 35 54 6 46
-32 -8 -23 17 10 30 28 11 60 57 47 69 -3 3 -15 1 -26 -6 -34 -17 -24 5 14 34
19 15 35 36 35 47 0 20 -15 26 -25 9 -9 -15 -25 -12 -19 4 3 7 16 18 30 24 25
12 52 57 41 68 -4 4 -18 -1 -32 -10 -37 -25 -30 -5 10 27 50 40 46 85 -5 57
-17 -9 -18 -7 -10 22 11 36 3 81 -14 75 -6 -2 -10 -25 -10 -56 2 -49 1 -51
-15 -37 -25 23 -41 20 -41 -8 0 -14 11 -33 25 -44 14 -11 25 -30 25 -43 l0
-24 -26 28 c-26 29 -47 28 -37 -1 3 -9 16 -28 29 -42 16 -17 21 -32 17 -48 -7
-28 -11 -28 -35 3 -11 14 -24 25 -29 25 -18 0 -9 -39 17 -69 16 -19 24 -38 20
-48 -6 -14 -9 -14 -27 5 -40 43 -53 19 -19 -35 11 -18 17 -40 13 -49 -5 -13
-10 -11 -29 13 l-23 28 -1 -33 c0 -18 4 -42 10 -52 11 -20 4 -50 -11 -50 -5 0
-9 6 -9 14 0 20 -19 31 -32 18 -6 -6 -5 -24 3 -51 10 -33 10 -44 0 -54 -12
-12 -22 -3 -35 28 -2 6 -8 6 -16 -2 -10 -9 -10 -19 -1 -43 9 -26 8 -36 -7 -56
-21 -28 -32 -30 -32 -5 0 10 -6 24 -14 30 -19 16 -27 -9 -16 -50 10 -35 7 -44
-19 -58 -15 -9 -17 -6 -13 20 3 21 0 29 -11 29 -17 0 -27 -21 -27 -59 0 -25
-26 -61 -43 -61 -4 0 -7 11 -7 25 0 47 -35 22 -46 -34 -4 -17 -15 -36 -25 -42
-16 -8 -19 -6 -19 16 0 14 -4 25 -9 25 -13 0 -41 -41 -41 -60 0 -9 -16 -24
-35 -33 -45 -21 -48 -21 -35 2 14 28 13 41 -5 41 -16 0 -47 -59 -39 -72 5 -7
-59 -38 -77 -38 -5 0 -3 11 3 25 6 14 8 28 4 32 -12 13 -39 -12 -51 -46 -14
-42 -33 -52 -69 -37 -19 7 -32 23 -40 45 -11 33 -39 61 -51 50 -3 -4 -1 -18 4
-33 12 -29 7 -31 -36 -16 -22 8 -32 20 -39 47 -9 34 -37 64 -49 52 -3 -4 -1
-18 4 -33 12 -31 12 -31 -34 -9 -19 9 -35 24 -35 33 0 19 -28 60 -41 60 -5 0
-9 -11 -9 -25 0 -23 -2 -24 -20 -15 -11 6 -20 21 -20 33 0 28 -28 69 -41 61
-6 -3 -8 -17 -4 -31 l6 -25 -31 19 c-21 12 -30 24 -26 36 6 25 -14 79 -28 74
-6 -2 -10 -16 -9 -31 2 -23 -1 -25 -17 -16 -28 15 -31 24 -18 57 15 39 4 71
-17 53 -8 -7 -15 -21 -15 -31 0 -25 -8 -24 -29 3 -14 17 -16 27 -8 48 12 30 3
65 -14 55 -6 -4 -14 -17 -18 -28 l-8 -21 -11 21 c-8 15 -8 28 0 50 12 31 6 63
-11 63 -5 0 -13 -12 -18 -27 -10 -28 -10 -28 -21 -6 -9 17 -8 29 3 57 10 24
12 42 7 53 -8 14 -12 12 -27 -11 -16 -24 -20 -25 -27 -12 -6 11 -3 24 11 43
21 26 28 63 13 63 -5 0 -17 -9 -27 -20 -17 -18 -20 -19 -28 -5 -6 11 -1 25 17
46 26 30 35 69 17 69 -5 0 -19 -12 -30 -26 -18 -23 -21 -24 -27 -9 -4 10 -2
25 4 34 7 9 19 29 28 45 22 39 3 56 -24 22 -11 -14 -23 -26 -26 -26 -13 0 -5
41 9 47 24 8 49 63 36 76 -8 8 -18 4 -35 -12 l-23 -22 1 57 c1 60 -17 86 -27
37z"/>
</g>
</svg>
